<svg t="1561541767276" class="icon" viewBox="0 0 1024 1024" version="1.1" xmlns="http://www.w3.org/2000/svg" p-id="4575" width="1024" height="1024"><path d="M851 765l-33.9-63.2c-4.4-8.3-6.8-17.6-6.8-27.2V403.9c0-160.2-109.9-293.3-252.7-316.5-8.4-17.2-25.1-29-44.3-29-19.2 0-35.9 11.8-44.3 29-142.8 23.1-252.7 156.2-252.7 316.5v270.6c0 9.5-2.3 18.9-6.8 27.2L175.8 765c-12.5 23.4-12.5 52.4 0 75.8s35.9 37.9 60.9 37.9h553.4c25.1 0 48.4-14.5 60.9-37.9s12.5-52.5 0-75.8zM582.9 884.6h-139c-19.3 0-35.1 17-35.1 37.8 0 20.8 15.8 37.8 35.1 37.8h139c19.3 0 35.1-17 35.1-37.8 0-20.8-15.8-37.8-35.1-37.8z" fill="#ffffff" p-id="4576"></path></svg>
