<svg t="1561540939708" class="icon" viewBox="0 0 1024 1024" version="1.1" xmlns="http://www.w3.org/2000/svg" p-id="2704" width="1024" height="1024"><path d="M987.2 511.64L512.43 36.87a84.75 84.75 0 0 0-65-24.71L111.55 31.91a84.83 84.83 0 0 0-79.65 79.65L12.15 447.43a84.57 84.57 0 0 0 24.69 65l474.8 474.8a84.91 84.91 0 0 0 119.93 0L987.2 631.58a84.9 84.9 0 0 0 0-119.94z m-39.28 80.66L592.29 947.92a29.31 29.31 0 0 1-41.37 0L76.1 473.1a29.22 29.22 0 0 1-8.49-22.38l19.74-335.88a29.29 29.29 0 0 1 27.48-27.48l335.9-19.75a29.32 29.32 0 0 1 22.38 8.52l474.8 474.8a29.31 29.31 0 0 1 0.01 41.37z" p-id="2705" fill="#ffffff"></path><path d="M236.86 236.86c-50.92 50.95-50.92 133.8 0 184.72a130.61 130.61 0 1 0 184.71-184.72c-50.89-50.86-133.77-50.86-184.71 0zM382.29 382.3c-28.38 28.38-77.78 28.38-106.15 0a75.08 75.08 0 1 1 106.15 0z" p-id="2706" fill="#ffffff"></path></svg>
